<svg width="25" height="27" viewBox="0 0 25 27" fill="none" xmlns="http://www.w3.org/2000/svg">
<path d="M21.4172 16.3806L13.6047 24.8181C13.4597 24.9749 13.2875 25.0993 13.098 25.1842C12.9084 25.2691 12.7052 25.3128 12.5 25.3128C12.2948 25.3128 12.0916 25.2691 11.9021 25.1842C11.7125 25.0993 11.5403 24.9749 11.3953 24.8181L3.58282 16.3806C3.28984 16.0641 3.12524 15.635 3.12524 15.1875C3.12524 14.74 3.28984 14.3109 3.58282 13.9944C3.8758 13.678 4.27317 13.5003 4.68751 13.5003C5.10185 13.5003 5.49921 13.678 5.7922 13.9944L10.9375 19.5514V3.375C10.9375 2.92745 11.1021 2.49822 11.3952 2.18176C11.6882 1.86529 12.0856 1.6875 12.5 1.6875C12.9144 1.6875 13.3118 1.86529 13.6049 2.18176C13.8979 2.49822 14.0625 2.92745 14.0625 3.375V19.5514L19.2078 13.9944C19.3526 13.8372 19.5247 13.7124 19.7143 13.6272C19.9039 13.5421 20.1072 13.4983 20.3125 13.4983C20.5178 13.4983 20.7211 13.5421 20.9107 13.6272C21.1003 13.7124 21.2724 13.8372 21.4172 13.9944C21.5624 14.151 21.6776 14.337 21.7562 14.5417C21.8349 14.7464 21.8753 14.9659 21.8753 15.1875C21.8753 15.4091 21.8349 15.6286 21.7562 15.8333C21.6776 16.038 21.5624 16.224 21.4172 16.3806Z" fill="black"/>
</svg>
