<svg width="34" height="34" viewBox="0 0 34 34" fill="none" xmlns="http://www.w3.org/2000/svg">
<path d="M31.9999 17C31.5579 17 31.134 17.1756 30.8214 17.4882C30.5088 17.8007 30.3333 18.2246 30.3333 18.6667V28.6667C30.3333 29.1087 30.1577 29.5326 29.8451 29.8452C29.5325 30.1577 29.1086 30.3333 28.6666 30.3333H5.33325C4.89122 30.3333 4.4673 30.1577 4.15474 29.8452C3.84218 29.5326 3.66659 29.1087 3.66659 28.6667V5.33333C3.66659 4.89131 3.84218 4.46738 4.15474 4.15482C4.4673 3.84226 4.89122 3.66667 5.33325 3.66667H15.3333C15.7753 3.66667 16.1992 3.49107 16.5118 3.17851C16.8243 2.86595 16.9999 2.44203 16.9999 2C16.9999 1.55797 16.8243 1.13405 16.5118 0.821489C16.1992 0.508928 15.7753 0.333333 15.3333 0.333333H5.33325C4.00717 0.333333 2.7354 0.860118 1.79772 1.7978C0.860036 2.73548 0.333252 4.00725 0.333252 5.33333V28.6667C0.333252 29.9928 0.860036 31.2645 1.79772 32.2022C2.7354 33.1399 4.00717 33.6667 5.33325 33.6667H28.6666C29.9927 33.6667 31.2644 33.1399 32.2021 32.2022C33.1398 31.2645 33.6666 29.9928 33.6666 28.6667V18.6667C33.6666 18.2246 33.491 17.8007 33.1784 17.4882C32.8659 17.1756 32.4419 17 31.9999 17ZM6.99992 18.2667V25.3333C6.99992 25.7754 7.17551 26.1993 7.48807 26.5118C7.80064 26.8244 8.22456 27 8.66659 27H15.7333C15.9526 27.0013 16.17 26.9592 16.3731 26.8763C16.5762 26.7933 16.7609 26.6711 16.9166 26.5167L28.4499 14.9667L33.1833 10.3333C33.3395 10.1784 33.4635 9.99406 33.5481 9.79096C33.6327 9.58786 33.6763 9.37002 33.6763 9.15C33.6763 8.92998 33.6327 8.71214 33.5481 8.50904C33.4635 8.30594 33.3395 8.12161 33.1833 7.96667L26.1166 0.816667C25.9616 0.660453 25.7773 0.536462 25.5742 0.451848C25.3711 0.367233 25.1533 0.323669 24.9333 0.323669C24.7132 0.323669 24.4954 0.367233 24.2923 0.451848C24.0892 0.536462 23.9049 0.660453 23.7499 0.816667L19.0499 5.53333L7.48325 17.0833C7.32878 17.2391 7.20657 17.4238 7.12363 17.6268C7.04069 17.8299 6.99865 18.0473 6.99992 18.2667ZM24.9333 4.35L29.6499 9.06667L27.2833 11.4333L22.5666 6.71667L24.9333 4.35ZM10.3333 18.95L20.2166 9.06667L24.9333 13.7833L15.0499 23.6667H10.3333V18.95Z" fill="black"/>
</svg>
